<svg width="16" height="16" viewBox="0 0 16 16" fill="none" xmlns="http://www.w3.org/2000/svg">
<g clip-path="url(#clip0_10_6104)">
<path d="M11.333 2.22667C12.3465 2.81179 13.1881 3.65338 13.7732 4.66685C14.3583 5.68032 14.6663 6.82996 14.6663 8.00021C14.6663 9.17046 14.3583 10.3201 13.7731 11.3336C13.188 12.347 12.3464 13.1886 11.3329 13.7737C10.3195 14.3588 9.16982 14.6669 7.99957 14.6668C6.82932 14.6668 5.67969 14.3588 4.66623 13.7736C3.65277 13.1885 2.8112 12.3469 2.2261 11.3334C1.64099 10.3199 1.33298 9.17025 1.33301 8L1.33634 7.784C1.37368 6.63266 1.70871 5.51064 2.30877 4.52733C2.90883 3.54402 3.75344 2.73297 4.76027 2.17325C5.76709 1.61354 6.90177 1.32426 8.05368 1.33362C9.20558 1.34299 10.3354 1.65066 11.333 2.22667ZM9.99967 6.66667H5.99967C5.86778 6.66656 5.73883 6.70558 5.62912 6.77879C5.51941 6.85199 5.43388 6.95609 5.38335 7.07792C5.33282 7.19975 5.31956 7.33383 5.34525 7.46319C5.37094 7.59255 5.43443 7.71139 5.52767 7.80467L7.52767 9.80467C7.58959 9.86665 7.66312 9.91582 7.74405 9.94937C7.82498 9.98292 7.91173 10.0002 7.99934 10.0002C8.08695 10.0002 8.1737 9.98292 8.25463 9.94937C8.33557 9.91582 8.40909 9.86665 8.47101 9.80467L10.471 7.80467C10.596 7.67965 10.6662 7.51011 10.6662 7.33333C10.6662 7.15656 10.596 6.98702 10.471 6.862L10.4083 6.80667C10.2914 6.71594 10.1477 6.66668 9.99967 6.66667Z" fill="white"/>
</g>
<defs>
<clipPath id="clip0_10_6104">
<rect width="16" height="16" fill="white"/>
</clipPath>
</defs>
</svg>
