<svg width="32" height="32" viewBox="0 0 32 32" fill="none" xmlns="http://www.w3.org/2000/svg">
<g clip-path="url(#clip0_5505_409)">
<mask id="path-1-inside-1_5505_409" fill="white">
<path d="M17.3333 5.33325V10.6666C8.56667 12.0373 5.30667 19.7173 4.00001 26.6666C3.95067 26.9413 11.1787 18.7173 17.3333 18.6666V23.9999L28 14.6666L17.3333 5.33325Z"/>
</mask>
<path d="M17.3333 5.33325L30.5034 -9.71828C24.5976 -14.8859 16.2152 -16.1221 9.06902 -12.8794C1.92279 -9.63668 -2.66666 -2.51429 -2.66666 5.33325L17.3333 5.33325ZM17.3333 10.6666L20.4228 30.4265C30.1574 28.9045 37.3333 20.5195 37.3333 10.6666H17.3333ZM4.00001 26.6666L-15.6556 22.9708C-15.6656 23.0241 -15.6754 23.0775 -15.685 23.1309L4.00001 26.6666ZM17.3333 18.6666H37.3333C37.3333 13.3337 35.2035 8.22171 31.4171 4.46636C27.6308 0.711011 22.5014 -1.37664 17.1687 -1.33274L17.3333 18.6666ZM17.3333 23.9999H-2.66666C-2.66666 31.8475 1.92279 38.9698 9.06902 42.2126C16.2152 45.4553 24.5976 44.2191 30.5034 39.0515L17.3333 23.9999ZM28 14.6666L41.1701 29.7181C45.5104 25.9204 48 20.4338 48 14.6666C48 8.89933 45.5104 3.41281 41.1701 -0.384948L28 14.6666ZM17.3333 5.33325H-2.66666V10.6666H17.3333H37.3333V5.33325H17.3333ZM17.3333 10.6666L14.2439 -9.09335C-8.14836 -5.59233 -14.074 14.5593 -15.6556 22.9708L4.00001 26.6666L23.6556 30.3624C23.833 29.4188 24.0261 28.733 24.1928 28.2758C24.362 27.8115 24.4257 27.7985 24.2482 28.0519C24.043 28.3446 23.5516 28.9362 22.696 29.4967C21.7998 30.0839 20.9486 30.3443 20.4228 30.4265L17.3333 10.6666ZM4.00001 26.6666L-15.685 23.1309C-15.9135 24.4033 -16.7389 29.2839 -14.2591 34.8324C-12.8305 38.0287 -10.4085 41.1685 -6.8705 43.4598C-3.46211 45.6672 -0.0442319 46.4267 2.51279 46.6177C7.04876 46.9566 10.441 45.6386 11.4177 45.249C12.8153 44.6916 13.8507 44.0934 14.3637 43.7833C15.4148 43.1478 16.1746 42.5527 16.4372 42.3453C16.791 42.0658 17.068 41.8279 17.2265 41.6895C17.7353 41.2453 18.1816 40.808 18.2277 40.7633C18.6272 40.376 18.6803 40.3186 19.0181 39.9957C19.5399 39.4968 20.1276 38.964 20.729 38.4894C21.3875 37.9698 21.6963 37.8122 21.6155 37.8528C21.5448 37.8883 21.1946 38.0604 20.5862 38.2376C19.9808 38.414 18.9184 38.6542 17.498 38.6659L17.3333 18.6666L17.1687 -1.33274C11.4176 -1.28539 6.69085 0.588599 3.67768 2.10037C0.512104 3.68861 -2.13701 5.57934 -4.04865 7.08773C-6.01744 8.64121 -7.6121 10.116 -8.62402 11.0835C-9.05313 11.4937 -9.60467 12.0342 -9.61507 12.0443C-9.7739 12.1983 -9.48384 11.9095 -9.07848 11.5556C-8.94584 11.4398 -8.69142 11.2208 -8.35688 10.9565C-8.11347 10.7643 -7.36951 10.1806 -6.33079 9.55261C-5.82399 9.24622 -4.79396 8.6508 -3.40089 8.09519C-2.42865 7.70741 0.959978 6.39018 5.49319 6.72889C8.04884 6.91985 11.4656 7.67896 14.873 9.88572C18.4101 12.1764 20.8313 15.3154 22.2594 18.5106C24.7383 24.0569 23.9128 28.9342 23.685 30.2022L4.00001 26.6666ZM17.3333 18.6666H-2.66666V23.9999H17.3333H37.3333V18.6666H17.3333ZM17.3333 23.9999L30.5034 39.0515L41.1701 29.7181L28 14.6666L14.8299 -0.384948L4.16325 8.94839L17.3333 23.9999ZM28 14.6666L41.1701 -0.384948L30.5034 -9.71828L17.3333 5.33325L4.16325 20.3848L14.8299 29.7181L28 14.6666Z" fill="white" mask="url(#path-1-inside-1_5505_409)"/>
</g>
<defs>
<clipPath id="clip0_5505_409">
<rect width="32" height="32" fill="white"/>
</clipPath>
</defs>
</svg>
