<svg width="100" height="100" viewBox="0 0 100 100" fill="none" xmlns="http://www.w3.org/2000/svg">
<path d="M8.57605 6.19504L3.40405 11.367L8.71305 16.676L13.9991 21.962L15.3661 20.595L16.7331 19.228L13.7711 16.266L10.8091 13.304H24.6631H38.4941V11.367V9.43004H24.7761H11.0361L13.8841 6.58204L16.7321 3.73404L15.3651 2.36704C14.6131 1.61504 13.9521 1.00004 13.8841 1.00004C13.8171 1.00004 11.4241 3.32404 8.57605 6.19504Z" fill="white"/>
<path d="M84.8621 2.36704L83.4951 3.73404L86.3431 6.58204L89.1911 9.43004H75.4511H61.7341V11.367V13.304H75.5651H89.4181L86.4561 16.266L83.4941 19.228L84.8611 20.595L86.2281 21.962L91.4001 16.79C94.2711 13.942 96.5951 11.504 96.5951 11.367C96.5951 11.139 86.5691 1.00004 86.3411 1.00004C86.2741 1.00004 85.6141 1.61504 84.8621 2.36704Z" fill="white"/>
<path d="M46.1261 11.777L42.4801 13.896L42.3661 34.266L42.2521 54.636L39.3581 49.646L36.4871 44.633L31.9301 44.565L27.3961 44.519L25.1631 48.392L22.9531 52.266L25.4141 56.527C26.7581 58.897 28.5361 61.973 29.3331 63.363L30.7911 65.938L31.9071 71.338L33.0231 76.761L39.6311 83.369L46.2391 89.977V94.488V98.977H48.1761H50.1131V93.691V88.382L43.3681 81.638L36.6241 74.893L35.5531 69.675L34.4601 64.457L30.9281 58.328L27.3741 52.199L28.4681 50.353L29.5621 48.507H31.8861H34.2331L40.1801 58.806L46.1271 69.105L46.1951 42.628L46.2411 16.151L48.1781 15.035L50.1151 13.941L52.0521 15.035L53.9891 16.151V32.262V48.394H55.9261H57.8631V44.452V40.51L59.7091 39.439C60.7121 38.847 61.6461 38.368 61.7601 38.368C61.8741 38.368 62.8081 38.847 63.7881 39.416L65.6111 40.464V44.429V48.394H67.5481H69.4621L69.5301 45.614L69.5981 42.857L71.4211 41.763C72.4241 41.148 73.3581 40.669 73.4721 40.669C73.6091 40.669 74.5661 41.17 75.6141 41.763L77.5281 42.834L77.4821 45.295C77.4591 46.639 77.3681 47.893 77.3001 48.075C77.1861 48.371 77.4821 48.394 79.1911 48.348L81.2191 48.28L81.2871 46.343L81.3551 44.406L83.2231 43.335C84.7501 42.469 85.1601 42.333 85.5471 42.515C85.7971 42.652 86.6861 43.153 87.5521 43.654L89.0791 44.543V56.232V67.921L85.2051 78.265L81.3301 88.587L81.3071 92.369C81.3071 94.442 81.3071 96.767 81.3071 97.564L81.3301 98.999L83.2211 98.931L85.0891 98.863L85.2031 93.85L85.3171 88.837L89.1451 78.743L92.9501 68.673V55.503V42.333L89.3501 40.259C87.3681 39.097 85.5911 38.094 85.3631 38.026C85.1351 37.912 84.3151 38.254 83.1071 38.937L81.2391 40.031L77.3431 38.072L73.4471 36.135L71.5561 37.251C70.5311 37.866 69.6191 38.367 69.5741 38.367C69.5061 38.367 67.7281 37.342 65.6091 36.088L61.7801 33.811L59.8201 34.927L57.8611 36.066L57.8151 24.992L57.7471 13.896L54.1011 11.777C52.0961 10.615 50.2961 9.65803 50.1141 9.65803C49.9321 9.65803 48.1321 10.615 46.1261 11.777Z" fill="white"/>
</svg>
